<svg width="29" height="29" viewBox="0 0 29 29" fill="none" xmlns="http://www.w3.org/2000/svg">
<circle cx="14.5179" cy="14.2681" r="14.1484" fill="#F9F9F9"/>
<path d="M20.3975 8.76034C19.5044 7.22525 15.4666 6.89962 15.0108 6.85776L14.4991 6.8252V16.2637C14.3808 16.1681 14.2548 16.0825 14.1223 16.0078C13.655 15.7727 13.145 15.6345 12.623 15.6018C12.1009 15.569 11.5776 15.6422 11.0846 15.8171C9.1681 16.4358 7.93538 18.2035 8.33543 19.7572C8.42459 20.0858 8.58047 20.3925 8.79336 20.6582C9.00624 20.9239 9.27157 21.1429 9.57281 21.3016C10.0892 21.5771 10.6668 21.7179 11.2521 21.7109C11.7231 21.7105 12.191 21.6352 12.6383 21.4877C14.3595 20.9341 15.5225 19.4548 15.4573 18.036V9.84421C15.9225 9.90003 16.5598 9.99772 17.2343 10.1419C17.902 10.2434 18.5435 10.4741 19.1229 10.8211C19.5881 11.1281 19.2997 11.7049 19.2765 11.7514C19.0541 12.0891 18.7951 12.4011 18.5043 12.6818C18.4197 12.7657 18.3705 12.8789 18.3668 12.998C18.3632 13.1171 18.4054 13.233 18.4848 13.3219C18.5641 13.4108 18.6745 13.4658 18.7933 13.4757C18.912 13.4856 19.03 13.4495 19.1229 13.3749C19.2206 13.2679 21.7093 11.0118 20.3975 8.76034Z" fill="#B9B9B9"/>
</svg>
